<svg xmlns="http://www.w3.org/2000/svg" width="1507" height="92" viewBox="0 0 1507 92">
  <defs>
    <style>
      .cls-1 {
        fill: #397aa4;
      }

      .cls-1, .cls-2 {
        fill-rule: evenodd;
      }

      .cls-2 {
        fill: #12335b;
        stroke: #12335b;
        stroke-width: 1px;
      }
    </style>
  </defs>
  <path id="Neil" class="cls-1" d="M605.554,89.937L605,50l44,41-0.263-60.276H639.8L640,71,597,29l-0.381,60.937h8.935ZM719.949,30.724H687.274V89.937h32.675v-8.4H696.21V61.749h23.049v-8.4H696.21V39.122h23.739v-8.4Zm36.083,0V89.937h8.936V30.724h-8.936Zm47.512,0V89.937H829.89v-8.4H812.479V30.724h-8.935Z"/>
  <path class="cls-2" d="M54.1,14.787V2.378H0.725V14.787H20.839V89.863h13.2V14.787H54.1ZM69.366,2.378V89.863h13.2V2.378h-13.2Zm48.3,87.484L127,41l25,49,26-49,8.566,48.863h13.542L183,2,152,61,123,2,104.011,89.863h13.655ZM232.6,79.72q13.485,11.729,30.427,11.729a45.13,45.13,0,0,0,32.693-13.2,43.018,43.018,0,0,0,13.486-32.013,43.716,43.716,0,0,0-13.429-32.127A43.743,43.743,0,0,0,263.706.735,44.571,44.571,0,0,0,231.3,13.994q-13.543,13.259-13.542,31.73,0,21.022,14.845,34h0Zm7.876-57.058a32.625,32.625,0,0,1,46.065,0q9.349,9.463,9.349,23.458a32.217,32.217,0,0,1-9.462,23.458A31.488,31.488,0,0,1,263.2,79.1q-12.693,0-22.381-9.349-9.745-9.349-9.746-23.854a31.56,31.56,0,0,1,9.406-23.231h0Zm129.892-7.876V2.378H316.992V14.787h20.115V89.863h13.2V14.787h20.058ZM398.836,2.378h-13.2V89.863h13.2V49.01h37.736V89.863h13.2V2.378h-13.2V36.6H398.836V2.378ZM491.9,89.863h13.2V52.07L533.77,2.378H518.585l-20.058,34.96-20-34.96H463.341L491.9,52.07V89.863ZM916.975,2.378v56.6q0,11.163-2.379,15.638-2.268,4.477-8.16,4.476-4.193,0-9.009-3.23l-6.459,11.275a29.609,29.609,0,0,0,15.468,4.306q10.935,0,17.565-7.763a22.717,22.717,0,0,0,4.816-9.576q1.416-4.985,1.417-15.128V2.378H916.975ZM965.162,79.72q13.485,11.729,30.427,11.729a45.122,45.122,0,0,0,32.691-13.2,43.022,43.022,0,0,0,13.49-32.013,43.728,43.728,0,0,0-13.43-32.127A43.761,43.761,0,0,0,996.269.735a44.57,44.57,0,0,0-32.41,13.259q-13.543,13.259-13.542,31.73,0,21.022,14.845,34h0Zm7.876-57.058A31.166,31.166,0,0,1,996.1,13.144a30.849,30.849,0,0,1,23,9.519q9.36,9.463,9.35,23.458a32.208,32.208,0,0,1-9.46,23.458A31.487,31.487,0,0,1,995.759,79.1q-12.693,0-22.381-9.349-9.746-9.349-9.746-23.854a31.56,31.56,0,0,1,9.406-23.231h0ZM1075.05,2.378h-13.2V89.863h13.2V49.01h37.74V89.863h13.2V2.378h-13.2V36.6h-37.74V2.378Zm88.59,87.484L1163,34l64,56,0.44-87.622h-13.2L1214,58,1151,2l-0.56,87.863h13.2ZM1277.72,0.678q-11.22,0-18.75,6.686a21.057,21.057,0,0,0-7.54,16.488q0,14.619,17.96,22.211l8.45,3.513a37.566,37.566,0,0,1,5.66,2.975,17.565,17.565,0,0,1,3.88,3.343,11.841,11.841,0,0,1,2.21,3.91,14.772,14.772,0,0,1,.71,4.675,14.307,14.307,0,0,1-4.08,10.482,13.806,13.806,0,0,1-10.25,4.136q-7.83,0-11.9-5.666-2.265-2.946-3.18-10.652l-13.37,2.946q1.815,12.239,9.12,18.981,7.425,6.744,18.82,6.743a27.614,27.614,0,0,0,20.11-7.933q8.04-7.875,8.05-19.945a23.727,23.727,0,0,0-4.93-15.213q-4.935-6.2-15.59-10.51l-8.72-3.57q-9.525-3.91-9.52-10.312a9.657,9.657,0,0,1,3.63-7.706,15.214,15.214,0,0,1,16.43-1.3q2.715,1.587,5.72,6.8l10.71-6.346q-8.5-14.731-23.63-14.732h0ZM1333.5,79.72q13.485,11.729,30.43,11.729a45.121,45.121,0,0,0,32.69-13.2,43.022,43.022,0,0,0,13.49-32.013,43.728,43.728,0,0,0-13.43-32.127A43.761,43.761,0,0,0,1364.61.735a44.567,44.567,0,0,0-32.41,13.259q-13.545,13.259-13.54,31.73,0,21.022,14.84,34h0Zm7.88-57.058a32.619,32.619,0,0,1,46.06,0q9.345,9.463,9.35,23.458a32.208,32.208,0,0,1-9.46,23.458A31.486,31.486,0,0,1,1364.1,79.1q-12.69,0-22.38-9.349-9.75-9.349-9.75-23.854a31.567,31.567,0,0,1,9.41-23.231h0Zm102.01,67.2L1443,34l64,57,0.19-88.622h-13.2L1494,59,1430,1l0.19,88.863h13.2ZM596.5,2.506H829.5V7.494H596.5V2.506ZM1443.39,89.863L1443,34l64,57,0.19-88.622h-13.2L1494,59,1430,1l0.19,88.863h13.2Zm0,0L1443,34l64,57,0.19-88.622h-13.2L1494,59,1430,1l0.19,88.863h13.2Z"/>
</svg>
